Coordinates
version=1
nRows=29
nColumns=24
inDegrees=yes

Units are S.I. units (second, meters, Newtons, ...)
Angles are in degrees.

endheader
time	pelvis_tilt	pelvis_list	pelvis_rotation	pelvis_tx	pelvis_ty	pelvis_tz	hip_flexion_r	hip_adduction_r	hip_rotation_r	knee_angle_r	ankle_angle_r	subtalar_angle_r	mtp_angle_r	hip_flexion_l	hip_adduction_l	hip_rotation_l	knee_angle_l	ankle_angle_l	subtalar_angle_l	mtp_angle_l	lumbar_extension	lumbar_bending	lumbar_rotation
      6.64000000	     13.23905235	      3.46295061	     13.98871998	      1.32460013	      0.91712539	     -0.25162847	      5.91819470	     -6.44285384	     -8.77507729	      0.05483724	     13.72525974	     -0.80383716	      0.00000000	    -29.63393391	     -0.40939400	     18.52618938	    -11.04404894	     24.78969673	      3.48855123	      0.00000000	    -28.39305899	      3.02622729	    -17.62972478
      6.64500000	     13.32702745	      3.19142770	     14.15710330	      1.33141523	      0.91659647	     -0.25115697	      5.92711986	     -6.10147742	     -8.79447752	     -0.36035818	     13.62231701	     -1.10373975	      0.00000000	    -29.86531733	     -0.88902369	     18.34586985	    -11.53134426	     24.75330629	      3.92022796	      0.00000000	    -28.37819312	      3.41895961	    -17.60477273
      6.65000000	     13.43951545	      2.88641897	     14.31854174	      1.33830100	      0.91613931	     -0.25061159	      5.92410265	     -5.70691958	     -8.83387698	     -0.86012170	     13.52744813	     -1.42516122	      0.00000000	    -30.10464467	     -1.41093579	     18.06476375	    -12.03626819	     24.66307633	      4.39188170	      0.00000000	    -28.37934474	      3.83109841	    -17.55938510
      6.65500000	     13.55790206	      2.53774671	     14.46011295	      1.34523832	      0.91571539	     -0.25004097	      5.93536590	     -5.25937260	     -8.85737905	     -1.44191286	     13.44224722	     -1.72934303	      0.00000000	    -30.32909075	     -1.96313232	     17.76862472	    -12.57098857	     24.54817031	      4.87623197	      0.00000000	    -28.37132515	      4.28874406	    -17.48023514
      6.66000000	     13.68264279	      2.15564475	     14.58950897	      1.35223662	      0.91532995	     -0.24943314	      5.95384909	     -4.76768879	     -8.88087952	     -2.09577823	     13.36213677	     -2.03024632	      0.00000000	    -30.53932901	     -2.54213784	     17.42180502	    -13.13736580	     24.40305670	      5.38373368	      0.00000000	    -28.35670404	      4.77324044	    -17.37720856
      6.66500000	     13.92355786	      1.75384657	     14.64981002	      1.35926444	      0.91507267	     -0.24868101	      5.87101622	     -4.20590422	     -8.84293253	     -2.81083023	     13.27485849	     -2.37366138	      0.00000000	    -30.87141955	     -3.14395461	     16.94768919	    -13.70046184	     24.21276250	      5.96754166	      0.00000000	    -28.47548340	      5.27242978	    -17.22784765
      6.67000000	     14.01687257	      1.30619533	     14.77412512	      1.36639700	      0.91473253	     -0.24803487	      5.93761934	     -3.64213733	     -8.89919568	     -3.57586235	     13.19328187	     -2.63940674	      0.00000000	    -31.00024154	     -3.76838968	     16.55383082	    -14.34482060	     23.98842118	      6.47883461	      0.00000000	    -28.39611991	      5.80623045	    -17.09122043
      6.67500000	     14.09945274	      0.83639394	     14.88265019	      1.37357280	      0.91441327	     -0.24736616	      6.01583087	     -3.05186361	     -8.92365474	     -4.36938460	     13.11536419	     -2.88844353	      0.00000000	    -31.08689415	     -4.39742362	     16.13142924	    -15.04931034	     23.72619554	      7.00959018	      0.00000000	    -28.29428937	      6.35621603	    -16.92653264
      6.68000000	     14.20057146	      0.34469509	     14.96109625	      1.38077634	      0.91413553	     -0.24660415	      6.08851727	     -2.42237562	     -8.92221077	     -5.20998468	     13.03227527	     -3.15651473	      0.00000000	    -31.17093307	     -5.04098649	     15.62999043	    -15.78985316	     23.44033551	      7.59346468	      0.00000000	    -28.21662095	      6.91228628	    -16.74667166
      6.68500000	     14.31757667	     -0.16375609	     15.00365908	      1.38803412	      0.91390289	     -0.24577427	      6.14381425	     -1.75852688	     -8.89636071	     -6.06594140	     12.94402167	     -3.44258626	      0.00000000	    -31.25403510	     -5.68541290	     15.07379653	    -16.56728375	     23.09961531	      8.19569361	      0.00000000	    -28.14940067	      7.47129530	    -16.54117192
      6.69000000	     14.39965305	     -0.69783792	     15.05416362	      1.39529889	      0.91366685	     -0.24499552	      6.23082066	     -1.08007705	     -8.88934610	     -6.93241275	     12.85330003	     -3.65474587	      0.00000000	    -31.25605904	     -6.33277463	     14.56666757	    -17.42679898	     22.75038314	      8.74890109	      0.00000000	    -28.03817198	      8.06584615	    -16.34245337
      6.69500000	     14.49423249	     -1.22838700	     15.08921228	      1.40263430	      0.91348734	     -0.24409309	      6.28969680	     -0.38321989	     -8.84527620	     -7.79395632	     12.78102718	     -3.93371785	      0.00000000	    -31.25090805	     -6.98673630	     13.95741641	    -18.32055124	     22.32717585	      9.36107770	      0.00000000	    -27.93621954	      8.62457711	    -16.12459066
      6.70000000	     14.57024159	     -1.77375510	     15.12068951	      1.40995234	      0.91332611	     -0.24321298	      6.36283583	      0.32428559	     -8.80902108	     -8.65727943	     12.69966280	     -4.16184575	      0.00000000	    -31.18519133	     -7.63633230	     13.37376137	    -19.28435138	     21.87448670	      9.91753847	      0.00000000	    -27.81747177	      9.20467674	    -15.91014261
      6.70500000	     14.63238106	     -2.32735922	     15.14646759	      1.41729900	      0.91318913	     -0.24230759	      6.43439181	      1.04386704	     -8.77139117	     -9.50122673	     12.62731861	     -4.38341611	      0.00000000	    -31.06861343	     -8.28549086	     12.78426983	    -20.31102096	     21.38523634	     10.46942066	      0.00000000	    -27.68000418	      9.78424902	    -15.69987565
      6.71000000	     14.68084237	     -2.88310017	     15.17081444	      1.42462846	      0.91309298	     -0.24141587	      6.50090792	      1.76420906	     -8.73099732	    -10.31691098	     12.54125363	     -4.56371224	      0.00000000	    -30.89476698	     -8.92462746	     12.22318673	    -21.40723958	     20.84578871	     10.98399670	      0.00000000	    -27.53127971	     10.36790735	    -15.49975253
      6.71500000	     14.72246691	     -3.43636590	     15.19745810	      1.43199413	      0.91302016	     -0.24047368	      6.55136024	      2.49180131	     -8.67979575	    -11.09971940	     12.49695771	     -4.77396786	      0.00000000	    -30.67605026	     -9.56624527	     11.63828086	    -22.56148905	     20.27089295	     11.47579079	      0.00000000	    -27.37087664	     10.93741131	    -15.30524287
      6.72000000	     14.75851996	     -3.98611112	     15.21773193	      1.43934582	      0.91297184	     -0.23948435	      6.59753002	      3.22345659	     -8.60874652	    -11.87114573	     12.48535910	     -5.01893191	      0.00000000	    -30.41474392	    -10.20197850	     11.05294451	    -23.76661006	     19.67041956	     11.92501487	      0.00000000	    -27.21038242	     11.49289446	    -15.11314177
      6.72500000	     14.78315479	     -4.52627675	     15.24569677	      1.44667026	      0.91296888	     -0.23853799	      6.62064936	      3.94225422	     -8.55076296	    -12.57954953	     12.47925218	     -5.20625754	      0.00000000	    -30.09082177	    -10.82003766	     10.51715238	    -25.04727853	     19.01894228	     12.28991515	      0.00000000	    -27.04048876	     12.04498641	    -14.93666755
      6.73000000	     14.79270590	     -5.05779243	     15.27669600	      1.45395719	      0.91298622	     -0.23754427	      6.63925030	      4.65727626	     -8.48886403	    -13.24795353	     12.49613828	     -5.42779520	      0.00000000	    -29.70078255	    -11.43338263	      9.97710507	    -26.39380663	     18.35882582	     12.61492903	      0.00000000	    -26.86275648	     12.57403121	    -14.78790667
      6.73500000	     14.80161310	     -5.58256856	     15.32941079	      1.46123896	      0.91305512	     -0.23663923	      6.62595086	      5.36156550	     -8.44005496	    -13.86161554	     12.54613200	     -5.57707443	      0.00000000	    -29.26811008	    -12.03603567	      9.52979164	    -27.78373132	     17.63962856	     12.81256910	      0.00000000	    -26.67796641	     13.11705876	    -14.64075681
      6.74000000	     14.80133131	     -6.09389318	     15.38818886	      1.46846772	      0.91315040	     -0.23569858	      6.59692797	      6.05652046	     -8.40146581	    -14.42124324	     12.62091065	     -5.74832303	      0.00000000	    -28.77323958	    -12.62973471	      9.10040104	    -29.23478907	     16.91655060	     12.95102411	      0.00000000	    -26.49357283	     13.63756814	    -14.52744093
      6.74500000	     14.74839881	     -6.57900882	     15.45827520	      1.47560498	      0.91323296	     -0.23470038	      6.60713549	      6.71826494	     -8.34796018	    -14.95060333	     12.70132214	     -5.97262088	      0.00000000	    -28.15803087	    -13.20393570	      8.69033898	    -30.75618442	     16.21162595	     13.08513042	      0.00000000	    -26.26257758	     14.11499697	    -14.47181878
      6.75000000	     14.71005067	     -7.05787440	     15.54523698	      1.48274045	      0.91336554	     -0.23381440	      6.56639658	      7.37112311	     -8.33195107	    -15.41273388	     12.84128320	     -6.11890920	      0.00000000	    -27.52196400	    -13.76322235	      8.35774706	    -32.30156686	     15.47008094	     13.01299453	      0.00000000	    -26.03984726	     14.60627818	    -14.40530693
      6.75500000	     14.66040248	     -7.51667825	     15.65792566	      1.48980108	      0.91352901	     -0.23292020	      6.51233970	      8.00425842	     -8.32084890	    -15.82074068	     13.00017368	     -6.26380122	      0.00000000	    -26.81800240	    -14.31023954	      8.09817103	    -33.88743971	     14.73121253	     12.86025109	      0.00000000	    -25.81146090	     15.07157611	    -14.37812984
      6.76000000	     14.61950194	     -7.94947212	     15.77289324	      1.49680681	      0.91373425	     -0.23210727	      6.41490670	      8.61020891	     -8.32772585	    -16.16469050	     13.20384231	     -6.39663839	      0.00000000	    -26.08563107	    -14.82073060	      7.88106859	    -35.49704167	     13.99516117	     12.57142306	      0.00000000	    -25.60049296	     15.53565440	    -14.37058474
      6.76500000	     14.59271292	     -8.36310535	     15.90786806	      1.50377097	      0.91398776	     -0.23131338	      6.27359822	      9.20514359	     -8.30917477	    -16.45053948	     13.43724886	     -6.51232700	      0.00000000	    -25.33000506	    -15.31517494	      7.73073450	    -37.11359393	     13.26494185	     12.15882168	      0.00000000	    -25.40219618	     15.97852059	    -14.37630073
      6.77000000	     14.46963362	     -8.74623017	     16.10599234	      1.51052987	      0.91418954	     -0.23053638	      6.22908861	      9.73295771	     -8.39722561	    -16.70795409	     13.63781738	     -6.63519710	      0.00000000	    -24.36815829	    -15.78464250	      7.70718155	    -38.81021129	     12.59791356	     11.73863151	      0.00000000	    -25.11707776	     16.37599400	    -14.44852885
      6.77500000	     14.55989259	     -9.07384714	     16.17799216	      1.51726195	      0.91463494	     -0.22975232	      5.90711575	     10.27751330	     -8.32838197	    -16.89988001	     13.91586191	     -6.71149249	      0.00000000	    -23.70827919	    -16.16393486	      7.56384266	    -40.40653742	     11.90133120	     11.06612191	      0.00000000	    -25.12988647	     16.73270257	    -14.32762988
      6.78000000	     14.37401721	     -9.43988628	     16.48129318	      1.52400412	      0.91481712	     -0.22910746	      5.87411973	     10.77053698	     -8.47908780	    -17.02652170	     14.17764704	     -6.84319775	      0.00000000	    -22.57262231	    -16.62429863	      7.72772269	    -42.11196532	     11.32037484	     10.46630264	      0.00000000	    -24.71669724	     17.13877875	    -14.59123475
